<svg id="Capa_1" enable-background="new 0 0 512 512" height="512" viewBox="0 0 512 512" width="512" xmlns="http://www.w3.org/2000/svg"><g><path d="m372.424 397.28-20.094-23.617c-18.591-21.851-28.83-49.685-28.83-78.375v-55.288h37.5v-30h-33.945l20.804-97.085-8.84-5.592c-2.53-1.601-24.085-14.421-68.019-16.904v-30.419h30v-30h-30v-30h-30v30h-30v30h30v30.419c-43.934 2.483-65.488 15.303-68.019 16.904l-8.84 5.592 20.804 97.085h-33.945v30h37.5v55.288c0 28.69-10.239 56.524-28.831 78.375l-20.152 23.686c-.756.9-18.517 22.403-18.517 54.651 0 32.247 17.761 53.751 18.517 54.651l4.496 5.349h223.975l4.496-5.349c.755-.9 18.516-22.403 18.516-54.651 0-32.247-17.761-53.751-18.576-54.72zm-174.223-268.596c10.336-3.735 29.393-8.684 57.799-8.684s47.463 4.949 57.799 8.684l-17.425 81.316h-80.748zm20.299 166.604v-55.288h75v55.288c0 35.327 12.446 69.61 35.064 96.712h-145.128c22.617-27.102 35.064-61.385 35.064-96.712zm134.478 186.712h-193.956c-3.399-6.025-8.022-16.67-8.022-30 0-13.332 4.624-23.976 8.023-30h193.953c3.399 6.024 8.024 16.667 8.024 30 0 13.331-4.623 23.975-8.022 30z"/></g></svg>